<?xml version="1.0" encoding="UTF-8"?>
<svg id="Layer_1" data-name="Layer 1" xmlns="http://www.w3.org/2000/svg" viewBox="0 0 200.36 206.23">
  <defs>
    <style>
      .cls-1 {
        fill: #fff;
      }
    </style>
  </defs>
  <path class="cls-1" d="m15.96,51.97L99.23,4.1c.28-.16.62-.16.9,0l83.49,47.76c.61.35.61,1.23,0,1.58l-19.05,10.89c-.27.15-.6.16-.87.02l-63.58-33.4c-.27-.14-.6-.14-.87.02l-7.29,4.16c-.62.35-.61,1.24.01,1.58l26.76,14.7c.62.34.63,1.22.02,1.58l-16.47,9.73c-.28.16-.62.17-.9.01l-28.7-15.85c-.28-.16-.62-.15-.9.01l-8.51,5.01c-.6.35-.6,1.23.01,1.57l58.91,33.34c.61.35.62,1.22,0,1.58l-22.07,12.79c-.28.16-.62.16-.91,0L15.96,53.55c-.61-.35-.61-1.23,0-1.58Z"/>
  <path class="cls-1" d="m12.71,58.32l83.64,47.89c.28.16.46.46.46.79l.12,81.8c0,.93-1.24,1.26-1.7.45l-20.69-36.66c-.08-.13-.12-.28-.12-.44l-.31-31.96c0-.32-.18-.62-.46-.78l-38.11-21.51c-.61-.34-1.36.1-1.35.8l.21,41.66c0,.32.17.61.44.77l14.79,8.86c.5.3,1.15.06,1.33-.49l4.83-14.62c.25-.74,1.25-.85,1.65-.17l38.5,66.18c.47.8-.43,1.71-1.24,1.24L11.8,154.35c-.28-.16-.45-.46-.45-.79V59.1c0-.7.75-1.13,1.36-.79Z"/>
  <path class="cls-1" d="m103.62,105.76l21.27-12.08c.6-.34,1.35.09,1.36.78l.2,33.25c0,.9,1.17,1.24,1.66.5l38.36-57.73c.08-.12.18-.22.31-.29l20.72-11.76c.6-.34,1.35.09,1.36.78l.09,16.21c0,.18-.05.35-.14.5l-33.47,51.98c-.21.32-.19.73.04,1.04l7.25,9.61c.27.35.75.46,1.15.26l23.9-12.54c.6-.32,1.33.12,1.33.8v26.72c0,.32-.17.62-.44.78l-30.81,18.06c-.39.23-.9.13-1.18-.23l-17.55-22.77c-.4-.52-1.2-.46-1.52.12l-10.99,20.31c-.07.13-.11.27-.11.42l-.31,18.46c0,.32-.18.61-.45.77l-20.96,12.11c-.6.35-1.36-.09-1.36-.78l-.16-94.48c0-.33.18-.63.46-.79Z"/>
</svg>